<svg xmlns="http://www.w3.org/2000/svg" xmlns:xlink="http://www.w3.org/1999/xlink" width="880px" height="500px" viewBox="-0.108696 0 440.217 250" preserveAspectRatio="xMidYMid meet"  ><rect id="svgEditorBackground" x="0" y="0" width="880" height="500" style="fill:none; stroke: none;"/><g id="e15_group" transform="matrix(1.38005 0.00498357 -0.00498357 1.38005 -161.693 -136.427)" style="stroke: rgb(87, 0, 181);stroke-width:3px;"><line id="e1_line" x1="140.49" y1="137.358" x2="138.964" y2="248.534" style="fill: none;" /><line id="e2_line" x1="139.49008178710938" y1="200.37847900390625" x2="168.99008178710938" y2="245.37847900390625" style="fill: none;" /><line id="e3_line" x1="181.99008178710938" y1="245.87847900390625" x2="213.49008178710938" y2="134.37852478027344" style="fill: none;" /><line id="e4_line" x1="213.49008178710938" y1="136.37855529785156" x2="241.99008178710938" y2="246.37847900390625" style="fill: none;" /><line id="e6_line" x1="174.17633056640625" y1="174.96014404296875" x2="313.1764221191406" y2="174.96014404296875" style="fill: none;" /><path d="M140.46716150513936,201.98316196440254a128.082794,128.082794,0,0,1,250.00000000000006,45" style="fill: none;" id="e8_circleArc"/><line id="e9_line" x1="312.49017333984375" y1="173.37847900390625" x2="312.49017333984375" y2="226.37847900390625" style="fill: none;"/><path d="M312.4900646939085,223.37858132664877a23.510848,23.510848,0,1,1,-47,-1" style="fill: none;" id="e10_circleArc"/><line id="e11_line" x1="353.49017333984375" y1="151.37850952148438" x2="329.49017333984375" y2="249.37847900390625" style="fill: none;"/><line id="e12_line" x1="327.49017333984375" y1="188.37847900390625" x2="386.49017333984375" y2="188.37847900390625" style="fill: none;"/><line id="e14_line" x1="227.99008178710938" y1="144.37855529785156" x2="246.99014282226562" y2="132.87850952148438" style="fill: none;"/></g></svg>